<?xml version="1.0" encoding="iso-8859-1"?>
<!-- Generator: Adobe Illustrator 19.2.1, SVG Export Plug-In . SVG Version: 6.00 Build 0)  -->
<svg version="1.1" id="Layer_1" xmlns="http://www.w3.org/2000/svg" xmlns:xlink="http://www.w3.org/1999/xlink" x="0px" y="0px"
	 viewBox="0 0 40 40" style="enable-background:new 0 0 40 40;" xml:space="preserve">
<line style="fill:#C8D1DB;stroke:#66798F;stroke-miterlimit:10;" x1="4" y1="15.5" x2="13.333" y2="15.5"/>
<line style="fill:#C8D1DB;stroke:#66798F;stroke-miterlimit:10;" x1="4" y1="15.5" x2="13" y2="25"/>
<line style="fill:#C8D1DB;stroke:#66798F;stroke-miterlimit:10;" x1="4" y1="15.5" x2="13" y2="6"/>
<g>
	<polygon style="fill:#F78F8F;" points="12.5,5.577 39.5,9.434 39.5,21.566 12.5,25.423 	"/>
	<path style="fill:#C74343;" d="M13,6.153l26,3.714v11.265l-26,3.714V6.153 M12,5v21l28-4V9L12,5L12,5z"/>
</g>
<g>
	<rect x="1.5" y="5.833" style="fill:#C8D1DB;" width="3" height="33.667"/>
	<path style="fill:#66798F;" d="M4,6.333V39H2V6.333H4 M5,5.333H1V40h4V5.333L5,5.333z"/>
</g>
<g>
	<rect x="0.5" y="12.5" style="fill:#C8D1DB;" width="5" height="6"/>
	<path style="fill:#66798F;" d="M5,13v5H1v-5H5 M6,12H0v7h6V12L6,12z"/>
</g>
<rect x="2" y="38" style="fill:#C8D1DB;" width="2" height="2"/>
<g>
	<circle style="fill:#F78F8F;" cx="2.999" cy="3.999" r="2.5"/>
	<g>
		<path style="fill:#C74343;" d="M2.999,2C4.102,2,5,2.897,5,3.999C5,5.102,4.102,6,2.999,6C1.897,6,1,5.102,1,3.999
			C1,2.897,1.897,2,2.999,2 M2.999,1C1.343,1,0,2.344,0,3.999C0,5.656,1.343,7,2.999,7C4.657,7,6,5.656,6,3.999
			C6,2.344,4.657,1,2.999,1L2.999,1z"/>
	</g>
</g>
<g>
	<polygon style="fill:#FFFFFF;" points="24,23.276 24,7.724 19,7.01 19,23.99 	"/>
	<polygon style="fill:#FFFFFF;" points="35,21.704 35,9.296 30,8.582 30,22.418 	"/>
</g>
</svg>
