<?xml version="1.0" encoding="iso-8859-1"?>
<!-- Generator: Adobe Illustrator 19.2.0, SVG Export Plug-In . SVG Version: 6.00 Build 0)  -->
<svg version="1.1" id="Layer_1" xmlns="http://www.w3.org/2000/svg" xmlns:xlink="http://www.w3.org/1999/xlink" x="0px" y="0px"
	 viewBox="0 0 40 40" style="enable-background:new 0 0 40 40;" xml:space="preserve">
<rect x="38" y="3" style="fill:#7496C4;" width="1" height="33"/>
<rect x="32" y="35" style="fill:#7496C4;" width="7" height="1"/>
<rect x="32" y="19" style="fill:#7496C4;" width="7" height="1"/>
<rect x="32" y="3" style="fill:#C74343;" width="7" height="1"/>
<rect x="35" y="31" style="fill:#7496C4;" width="4" height="1"/>
<rect x="35" y="27" style="fill:#7496C4;" width="4" height="1"/>
<rect x="35" y="23" style="fill:#7496C4;" width="4" height="1"/>
<rect x="35" y="15" style="fill:#7496C4;" width="4" height="1"/>
<rect x="35" y="11" style="fill:#C74343;" width="4" height="1"/>
<rect x="38" y="3" style="fill:#C74343;" width="1" height="9"/>
<rect x="35" y="7" style="fill:#C74343;" width="4" height="1"/>
<g>
	<path style="fill:#C2E8FF;" d="M14.5,38.5c-7.168,0-13-5.864-13-13.071c0-7.508,10.808-20.991,12.998-23.645
		C16.68,4.463,27.5,18.117,27.5,25.429C27.5,32.636,21.668,38.5,14.5,38.5z"/>
	<path style="fill:#7496C4;" d="M14.495,2.576C17.315,6.086,27,18.637,27,25.429C27,32.36,21.393,38,14.5,38
		C7.607,38,2,32.36,2,25.429C2,18.453,11.669,6.051,14.495,2.576 M14.5,1C14.5,1,1,16.833,1,25.429C1,32.924,7.044,39,14.5,39
		C21.956,39,28,32.924,28,25.429C28,17.06,14.5,1,14.5,1L14.5,1z"/>
</g>
<g>
	<path style="fill:#8BB7F0;" d="M14.5,38.5c-7.168,0-13-5.864-13-13.071c0-1.995,0.779-4.602,2.315-7.751
		C5.077,17.114,6.777,16.5,8.929,16.5c1.841,0,3.484,0.936,5.223,1.927c1.79,1.019,3.64,2.073,5.777,2.073
		c1.907,0,3.811-0.627,5.666-1.866c1.265,2.75,1.906,5.035,1.906,6.794C27.5,32.636,21.668,38.5,14.5,38.5z"/>
	<path style="fill:#4E7AB5;" d="M8.929,17c1.709,0,3.296,0.904,4.976,1.861C15.75,19.913,17.658,21,19.929,21
		c1.837,0,3.665-0.549,5.447-1.633C26.454,21.816,27,23.852,27,25.429C27,32.36,21.393,38,14.5,38S2,32.36,2,25.429
		c0-1.884,0.735-4.362,2.185-7.368C5.382,17.539,6.963,17,8.929,17 M8.929,16c-2.326,0-4.176,0.699-5.483,1.295
		C1.997,20.232,1,23.097,1,25.429C1,32.924,7.044,39,14.5,39C21.956,39,28,32.924,28,25.429c0-2.143-0.888-4.791-2.205-7.544
		C24.516,18.818,22.49,20,19.929,20C15.929,20,12.887,16,8.929,16L8.929,16z"/>
</g>
</svg>
