<?xml version="1.0" encoding="iso-8859-1"?>
<!-- Generator: Adobe Illustrator 19.2.0, SVG Export Plug-In . SVG Version: 6.00 Build 0)  -->
<svg version="1.1" id="Layer_1" xmlns="http://www.w3.org/2000/svg" xmlns:xlink="http://www.w3.org/1999/xlink" x="0px" y="0px"
	 viewBox="0 0 40 40" style="enable-background:new 0 0 40 40;" xml:space="preserve">
<g>
	<path style="fill:#E1EBF2;" d="M17,22.214c-2.481,0-4.5-2.019-4.5-4.5V6c0-2.481,2.019-4.5,4.5-4.5s4.5,2.019,4.5,4.5v11.714
		C21.5,20.196,19.481,22.214,17,22.214z"/>
	<g>
		<path style="fill:#788B9C;" d="M17,2c2.206,0,4,1.794,4,4v11.714c0,2.206-1.794,4-4,4c-2.206,0-4-1.794-4-4V6
			C13,3.794,14.794,2,17,2 M17,1c-2.75,0-5,2.25-5,5v11.714c0,2.75,2.25,5,5,5s5-2.25,5-5V6C22,3.25,19.75,1,17,1L17,1z"/>
	</g>
</g>
<g>
	<path style="fill:#F78F8F;" d="M17,38.5c-4.136,0-7.5-3.364-7.5-7.5c0-2.283,1.025-4.415,2.813-5.85L12.5,25v-9.5h9V25l0.187,0.15
		C23.475,26.585,24.5,28.717,24.5,31C24.5,35.136,21.136,38.5,17,38.5z"/>
	<g>
		<path style="fill:#C74343;" d="M21,16v8.76v0.48l0.374,0.3C23.043,26.879,24,28.869,24,31c0,3.86-3.14,7-7,7c-3.86,0-7-3.14-7-7
			c0-2.131,0.957-4.121,2.626-5.46L13,25.24v-0.48V16H21 M22,15H12v9.76c-1.827,1.466-3,3.714-3,6.24c0,4.418,3.582,8,8,8
			s8-3.582,8-8c0-2.525-1.173-4.773-3-6.24V15L22,15z"/>
	</g>
</g>
<rect x="25" y="24" style="fill:#4E7AB5;" width="6" height="1"/>
<rect x="25" y="20" style="fill:#4E7AB5;" width="6" height="1"/>
<rect x="25" y="16" style="fill:#4E7AB5;" width="6" height="1"/>
<rect x="25" y="12" style="fill:#C74343;" width="6" height="1"/>
<rect x="25" y="8" style="fill:#C74343;" width="6" height="1"/>
<rect x="25" y="4" style="fill:#C74343;" width="6" height="1"/>
</svg>
